<svg width="24" height="24" viewBox="0 0 24 24" fill="none" xmlns="http://www.w3.org/2000/svg">
<path d="M8 4C8.08772 4.08401 8.15753 4.18491 8.20522 4.29662C8.25292 4.40833 8.2775 4.52854 8.2775 4.65C8.2775 4.77146 8.25292 4.89167 8.20522 5.00338C8.15753 5.11509 8.08772 5.21599 8 5.3L5.7 7.58C5.55377 7.70899 5.37302 7.79241 5.18 7.82H5.06C4.98697 7.82953 4.91302 7.82953 4.84 7.82C4.80013 7.82454 4.75987 7.82454 4.72 7.82C4.65576 7.79077 4.59531 7.75383 4.54 7.71L4.42 7.63L3.24 6.4C3.14101 6.3197 3.06 6.2195 3.00221 6.1059C2.94441 5.99229 2.91113 5.86781 2.90452 5.74053C2.8979 5.61324 2.9181 5.48598 2.9638 5.36699C3.00951 5.24801 3.07969 5.13995 3.16982 5.04983C3.25995 4.9597 3.36801 4.88951 3.48699 4.8438C3.60598 4.7981 3.73324 4.7779 3.86052 4.78452C3.98781 4.79114 4.11229 4.82442 4.2259 4.88221C4.3395 4.94 4.4397 5.02101 4.52 5.12L5.06 5.67L6.7 4C6.78401 3.91228 6.88491 3.84247 6.99662 3.79477C7.10833 3.74708 7.22853 3.7225 7.35 3.7225C7.47146 3.7225 7.59167 3.74708 7.70338 3.79477C7.81509 3.84247 7.91599 3.91228 8 4ZM6.7 10L5.06 11.67L4.52 11.12C4.34525 10.9782 4.12418 10.9063 3.89947 10.9179C3.67476 10.9296 3.46235 11.0241 3.30324 11.1832C3.14413 11.3424 3.04961 11.5548 3.03793 11.7795C3.02625 12.0042 3.09824 12.2253 3.24 12.4L4.42 13.58L4.54 13.66C4.59531 13.7038 4.65576 13.7408 4.72 13.77H4.84C4.91302 13.7795 4.98697 13.7795 5.06 13.77H5.18C5.37302 13.7424 5.55377 13.659 5.7 13.53L8 11.3C8.08536 11.2146 8.15307 11.1133 8.19926 11.0018C8.24546 10.8903 8.26924 10.7707 8.26924 10.65C8.26924 10.5293 8.24546 10.4098 8.19926 10.2982C8.15307 10.1867 8.08536 10.0854 8 10C7.91464 9.91464 7.8133 9.84693 7.70178 9.80074C7.59025 9.75454 7.47071 9.73076 7.35 9.73076C7.22928 9.73076 7.10975 9.75454 6.99822 9.80074C6.88669 9.84693 6.78536 9.91464 6.7 10ZM6.7 16L5.06 17.67L4.52 17.12C4.4397 17.021 4.3395 16.94 4.2259 16.8822C4.11229 16.8244 3.98781 16.7911 3.86052 16.7845C3.73324 16.7779 3.60598 16.7981 3.48699 16.8438C3.36801 16.8895 3.25995 16.9597 3.16982 17.0498C3.07969 17.14 3.00951 17.248 2.9638 17.367C2.9181 17.486 2.8979 17.6132 2.90452 17.7405C2.91113 17.8678 2.94441 17.9923 3.00221 18.1059C3.06 18.2195 3.14101 18.3197 3.24 18.4L4.42 19.58L4.54 19.66C4.59531 19.7038 4.65576 19.7408 4.72 19.77H4.84C4.91302 19.7795 4.98697 19.7795 5.06 19.77H5.18C5.37302 19.7424 5.55377 19.659 5.7 19.53L8 17.3C8.08536 17.2146 8.15307 17.1133 8.19926 17.0018C8.24546 16.8903 8.26924 16.7707 8.26924 16.65C8.26924 16.5293 8.24546 16.4097 8.19926 16.2982C8.15307 16.1867 8.08536 16.0854 8 16C7.91464 15.9146 7.8133 15.8469 7.70178 15.8007C7.59025 15.7545 7.47071 15.7308 7.35 15.7308C7.22928 15.7308 7.10975 15.7545 6.99822 15.8007C6.88669 15.8469 6.78536 15.9146 6.7 16ZM11 7H19.5C19.7652 7 20.0196 6.89464 20.2071 6.70711C20.3946 6.51957 20.5 6.26522 20.5 6C20.5 5.73478 20.3946 5.48043 20.2071 5.29289C20.0196 5.10536 19.7652 5 19.5 5H11C10.7348 5 10.4804 5.10536 10.2929 5.29289C10.1054 5.48043 10 5.73478 10 6C10 6.26522 10.1054 6.51957 10.2929 6.70711C10.4804 6.89464 10.7348 7 11 7ZM19.5 17H11C10.7348 17 10.4804 17.1054 10.2929 17.2929C10.1054 17.4804 10 17.7348 10 18C10 18.2652 10.1054 18.5196 10.2929 18.7071C10.4804 18.8946 10.7348 19 11 19H19.5C19.7652 19 20.0196 18.8946 20.2071 18.7071C20.3946 18.5196 20.5 18.2652 20.5 18C20.5 17.7348 20.3946 17.4804 20.2071 17.2929C20.0196 17.1054 19.7652 17 19.5 17ZM19.5 11H11C10.7348 11 10.4804 11.1054 10.2929 11.2929C10.1054 11.4804 10 11.7348 10 12C10 12.2652 10.1054 12.5196 10.2929 12.7071C10.4804 12.8946 10.7348 13 11 13H19.5C19.7652 13 20.0196 12.8946 20.2071 12.7071C20.3946 12.5196 20.5 12.2652 20.5 12C20.5 11.7348 20.3946 11.4804 20.2071 11.2929C20.0196 11.1054 19.7652 11 19.5 11Z" fill="#222221"/>
</svg>
